<svg xmlns="http://www.w3.org/2000/svg" xmlns:xlink="http://www.w3.org/1999/xlink" width="422" height="348" viewBox="0 0 422 348">
    <defs>
        <path id="a" d="M132.796 163.441h-1.987v-3.345h1.987v.725h-1.083v.526h1.003v.726h-1.003v.631h1.083v.737zm1.35.046a.785.785 0 0 1-.682-.357c-.165-.238-.247-.565-.247-.982 0-.42.084-.75.253-.988a.801.801 0 0 1 .69-.357c.313 0 .548.122.707.366h.018l.067-.32h.773v3.718h-.895v-1.073c0-.052.01-.179.028-.38h-.028c-.146.249-.374.373-.684.373zm.364-.693c.136 0 .235-.042.296-.126.062-.084.093-.226.093-.426v-.107c0-.23-.031-.393-.094-.491-.062-.099-.165-.148-.309-.148-.247 0-.37.222-.37.666 0 .226.03.388.093.485.063.098.16.147.291.147zm3.68.647l-.112-.322h-.053a.728.728 0 0 1-.312.273c-.134.063-.29.095-.47.095-.286 0-.508-.083-.667-.248-.158-.166-.238-.4-.238-.702v-1.689h.895v1.417c0 .17.024.298.072.384.048.087.127.13.237.13.154 0 .264-.06.33-.181.065-.121.098-.326.098-.614v-1.136h.895v2.593h-.675zm2.192 0h-.895v-2.593h.895v2.593zm-.917-3.238c0-.134.037-.234.112-.3.074-.065.195-.098.361-.098.167 0 .288.033.364.1.076.068.115.167.115.298 0 .262-.16.394-.479.394-.316 0-.473-.132-.473-.394zm2.812 2.577c.12 0 .265-.03.433-.09v.653c-.12.052-.236.089-.345.11-.109.023-.237.034-.383.034-.3 0-.517-.074-.65-.22-.133-.148-.2-.374-.2-.68v-1.068h-.313v-.364l.399-.281.23-.545h.587v.52h.636v.67h-.636v1.01c0 .167.08.25.242.25zm.572-1.932h.943l.44 1.488c.02.078.035.172.043.281h.018c.012-.105.03-.197.055-.276l.451-1.493h.913l-1.025 2.758c-.131.351-.293.599-.484.744-.192.145-.441.217-.75.217-.119 0-.24-.013-.366-.039v-.702c.081.018.173.027.277.027a.45.45 0 0 0 .208-.046.474.474 0 0 0 .156-.129c.044-.056.092-.147.142-.273l-1.02-2.557z"/>
        <path id="b" d="M163.278 163.441v-3.345h.904v2.615h1.288v.73h-2.192zm4.366 0l-.172-.343h-.018a1.02 1.02 0 0 1-.368.307 1.217 1.217 0 0 1-.486.082c-.244 0-.436-.073-.576-.22-.14-.146-.21-.352-.21-.618 0-.276.095-.481.288-.616.192-.135.47-.211.835-.228l.432-.014v-.036c0-.214-.105-.32-.315-.32-.19 0-.43.063-.721.192l-.259-.59c.302-.157.684-.234 1.144-.234.333 0 .59.082.773.247.182.165.273.395.273.69v1.701h-.62zm-.664-.586a.404.404 0 0 0 .278-.103.342.342 0 0 0 .116-.267v-.202l-.206.01c-.294.01-.442.118-.442.324 0 .16.085.238.254.238zm3.458-2.052c.078 0 .152.006.222.018l.05.01-.08.844a1.316 1.316 0 0 0-.304-.028c-.195 0-.337.045-.426.134-.088.09-.132.218-.132.386v1.274h-.895v-2.593h.666l.14.415h.043a.896.896 0 0 1 .312-.333.748.748 0 0 1 .404-.127zm.9 2.45a.52.52 0 0 1-.205-.162.36.36 0 0 1-.088-.222c0-.08.022-.152.066-.214a.98.98 0 0 1 .277-.22.69.69 0 0 1-.317-.28.873.873 0 0 1-.116-.462c0-.282.097-.501.289-.657.192-.156.467-.233.824-.233.047 0 .129.005.245.016.116.01.2.02.256.03h.904v.432l-.355.13a.63.63 0 0 1 .073.31c0 .279-.098.495-.294.65-.196.153-.488.23-.877.23a1.13 1.13 0 0 1-.23-.018.238.238 0 0 0-.031.112c0 .044.036.078.107.102a.92.92 0 0 0 .282.036h.43c.581 0 .872.244.872.734a.832.832 0 0 1-.404.737c-.27.176-.647.263-1.134.263-.368 0-.651-.061-.85-.184a.587.587 0 0 1-.299-.53c0-.31.192-.51.577-.6h-.002zm.18.511c0 .073.04.132.12.177.079.045.185.068.318.068.216 0 .39-.027.52-.081.13-.055.196-.124.196-.21 0-.068-.04-.117-.12-.145a1.065 1.065 0 0 0-.34-.042h-.35a.424.424 0 0 0-.244.067c-.066.045-.1.1-.1.166zm.282-2.067c0 .266.092.399.277.399a.228.228 0 0 0 .198-.099.511.511 0 0 0 .07-.295c0-.268-.09-.403-.268-.403-.185 0-.277.133-.277.398zm3.318 1.79c-.432 0-.767-.115-1.006-.344-.238-.23-.358-.557-.358-.981 0-.438.11-.774.332-1.008.221-.234.537-.351.948-.351.39 0 .692.101.905.305.213.204.319.497.319.88v.398h-1.6c.006.145.06.259.16.341.1.083.235.124.408.124.157 0 .302-.015.433-.045.132-.03.275-.08.43-.152v.643c-.14.072-.286.121-.435.149-.15.027-.328.041-.536.041zm-.052-2.076a.372.372 0 0 0-.265.1c-.07.066-.112.17-.124.312h.769a.446.446 0 0 0-.107-.3.351.351 0 0 0-.273-.112zm1.487 1.13v-.713h1.293v.714h-1.293zm3.243-1.752a.576.576 0 0 0-.504.264c-.12.176-.18.42-.18.73 0 .643.245.965.734.965.148 0 .292-.02.43-.062.14-.041.279-.09.42-.149v.765c-.28.123-.596.185-.948.185-.505 0-.892-.146-1.162-.44-.269-.292-.403-.716-.403-1.27 0-.346.065-.65.195-.913a1.4 1.4 0 0 1 .563-.605 1.7 1.7 0 0 1 .864-.212c.362 0 .707.079 1.037.236l-.277.712a3.113 3.113 0 0 0-.37-.147 1.296 1.296 0 0 0-.4-.06zm3.19 2.652l-.172-.343h-.018a1.02 1.02 0 0 1-.368.307 1.217 1.217 0 0 1-.485.082c-.245 0-.437-.073-.577-.22-.14-.146-.21-.352-.21-.618 0-.276.095-.481.288-.616.192-.135.47-.211.835-.228l.432-.014v-.036c0-.214-.105-.32-.315-.32-.19 0-.43.063-.721.192l-.259-.59c.302-.157.684-.234 1.144-.234.333 0 .59.082.773.247.182.165.273.395.273.69v1.701h-.62zm-.664-.586a.404.404 0 0 0 .278-.103.342.342 0 0 0 .116-.267v-.202l-.206.01c-.294.01-.442.118-.442.324 0 .16.085.238.254.238zm3.45.632a.904.904 0 0 1-.353-.065.897.897 0 0 1-.31-.235h-.04c.027.182.04.295.04.339v1.041h-.894v-3.719h.728l.126.33h.04a.784.784 0 0 1 .69-.375c.286 0 .512.119.675.357.163.238.245.564.245.98 0 .417-.085.746-.256.987-.17.24-.4.36-.692.36zm-.3-1.982c-.132 0-.224.047-.276.141-.053.094-.082.233-.086.418v.07c0 .223.03.384.09.483.059.1.152.15.28.15.115 0 .198-.05.25-.148.052-.099.078-.262.078-.489 0-.223-.026-.383-.078-.48-.052-.096-.138-.145-.259-.145z"/>
        <path id="c" d="M135.286 229.49c0 .559-.154.989-.461 1.29-.308.303-.74.454-1.297.454h-1.082v-3.346h1.158c.537 0 .951.138 1.243.412.293.275.439.671.439 1.19zm-.939.032c0-.306-.06-.534-.181-.682-.122-.148-.306-.222-.553-.222h-.263v1.875h.201c.275 0 .476-.08.604-.24.128-.16.192-.403.192-.73zm2.737 1.758c-.431 0-.767-.115-1.005-.345-.24-.23-.358-.556-.358-.98 0-.438.11-.774.331-1.008.222-.235.537-.352.948-.352.39 0 .692.102.905.306.213.204.32.497.32.88v.398h-1.6c.006.145.059.259.159.341.1.082.236.124.408.124.157 0 .302-.015.434-.045s.275-.08.429-.152v.643c-.14.072-.285.121-.435.149-.15.027-.328.04-.536.04zm-.052-2.076a.372.372 0 0 0-.264.1c-.071.066-.113.17-.125.312h.769a.446.446 0 0 0-.107-.3.351.351 0 0 0-.273-.112zm3.282-.609c.282 0 .506.119.671.355.166.237.249.564.249.982 0 .42-.084.75-.251.99a.803.803 0 0 1-.697.358.967.967 0 0 1-.256-.031.755.755 0 0 1-.2-.086 1.05 1.05 0 0 1-.205-.183h-.055l-.142.254h-.698v-3.56h.895v.805c0 .096-.011.261-.032.496h.032a.818.818 0 0 1 .3-.29.824.824 0 0 1 .389-.09zm-.328.703c-.125 0-.216.043-.274.13-.058.087-.087.224-.087.41v.126c0 .212.029.364.087.456.058.093.152.139.283.139.106 0 .187-.054.243-.161.056-.108.085-.266.085-.475 0-.417-.112-.625-.337-.625zm3.028 1.275c.12 0 .265-.03.432-.09v.653c-.12.051-.235.088-.344.11-.109.023-.237.034-.383.034-.3 0-.517-.074-.65-.221-.133-.147-.2-.373-.2-.679v-1.068h-.313v-.364l.398-.282.232-.544h.585v.52h.637v.67h-.637v1.009c0 .168.081.252.243.252z"/>
        <path id="d" d="M163.278 231.234v-3.346h.904v2.616h1.288v.73h-2.192zm5.151-1.302c0 .424-.114.755-.342.992-.228.237-.547.356-.958.356-.393 0-.707-.122-.94-.364-.232-.243-.348-.57-.348-.984 0-.423.114-.751.342-.985.228-.235.548-.352.96-.352.255 0 .48.055.675.163.195.108.346.263.452.466.106.202.159.438.159.708zm-1.68 0c0 .223.03.392.09.509.059.117.159.175.3.175.138 0 .236-.058.293-.175.058-.117.086-.286.086-.51 0-.22-.029-.387-.087-.5-.058-.113-.157-.17-.297-.17-.138 0-.236.056-.296.169-.059.112-.089.28-.089.502zm4.328 1.302l-.293-1.236-.069-.373-.046-.3h-.013c-.075.428-.125.697-.151.808l-.264 1.101h-.94l-.707-2.593h.88l.211.996c.068.341.106.625.117.85h.014c.004-.14.046-.406.126-.8l.24-1.046h.989l.22 1.06c.07.337.114.6.132.787h.014c.009-.116.024-.26.046-.434.02-.173.045-.312.07-.417l.23-.996h.862l-.712 2.593h-.956zm6.144-1.744c0 .559-.153.989-.46 1.29-.308.303-.74.454-1.297.454h-1.083v-3.346h1.158c.537 0 .952.138 1.244.412.292.275.438.671.438 1.19zm-.938.032c0-.306-.06-.534-.182-.682-.121-.148-.305-.222-.553-.222h-.263v1.875h.202c.274 0 .476-.08.604-.24.128-.16.192-.403.192-.73zm3.332 1.712l-.112-.323h-.053a.728.728 0 0 1-.312.274c-.134.063-.29.095-.47.095-.286 0-.508-.083-.666-.249-.159-.165-.238-.399-.238-.701v-1.689h.895v1.417c0 .17.024.297.072.384.048.087.127.13.237.13.154 0 .263-.06.329-.181.066-.122.098-.326.098-.615v-1.135h.895v2.593h-.675zm2.858-2.639c.078 0 .152.006.222.019l.05.009-.08.844a1.316 1.316 0 0 0-.304-.027c-.195 0-.337.044-.425.134-.089.089-.133.217-.133.385v1.275h-.895v-2.593h.666l.14.414h.043a.896.896 0 0 1 .313-.333.748.748 0 0 1 .403-.127zm2.232 2.639l-.172-.343h-.018a1.02 1.02 0 0 1-.369.306 1.217 1.217 0 0 1-.485.083c-.244 0-.436-.073-.577-.22-.14-.146-.21-.352-.21-.618 0-.276.096-.482.288-.617.193-.135.471-.21.836-.227l.432-.014v-.037c0-.213-.105-.32-.316-.32-.189 0-.43.064-.72.192l-.26-.59c.303-.156.684-.234 1.145-.234.333 0 .59.083.772.248.183.164.274.395.274.69v1.701h-.62zm-.664-.586a.404.404 0 0 0 .278-.103.342.342 0 0 0 .116-.268v-.201l-.206.01c-.295.01-.442.118-.442.324 0 .159.085.238.254.238zm3.163-.075c.12 0 .264-.03.432-.09v.653c-.12.051-.235.088-.344.11-.11.023-.237.034-.383.034-.301 0-.518-.074-.65-.221-.133-.147-.2-.373-.2-.679v-1.068h-.313v-.364l.398-.282.231-.544h.586v.52h.636v.67h-.636v1.009c0 .168.081.252.243.252zm1.785.661h-.895v-2.593h.895v2.593zm-.918-3.238c0-.134.038-.234.112-.3.075-.066.196-.098.362-.098.166 0 .287.033.364.1.076.067.114.167.114.298 0 .262-.16.393-.478.393-.316 0-.474-.13-.474-.393zm4.019 1.936c0 .424-.114.755-.342.992-.228.237-.548.356-.958.356-.394 0-.707-.122-.94-.364-.232-.243-.349-.57-.349-.984 0-.423.114-.751.343-.985.228-.235.548-.352.96-.352.254 0 .48.055.675.163.195.108.346.263.452.466.106.202.159.438.159.708zm-1.68 0c0 .223.03.392.09.509.059.117.159.175.299.175.139 0 .237-.058.294-.175.057-.117.086-.286.086-.51 0-.22-.03-.387-.087-.5-.058-.113-.157-.17-.298-.17-.137 0-.235.056-.295.169-.06.112-.089.28-.089.502zm3.826 1.302v-1.414c0-.173-.024-.303-.074-.39-.05-.088-.13-.132-.24-.132-.15 0-.26.06-.326.18-.068.121-.101.328-.101.62v1.136h-.895v-2.593h.675l.112.32h.053a.709.709 0 0 1 .317-.274 1.12 1.12 0 0 1 .466-.092c.286 0 .51.084.669.25.16.166.24.4.24.702v1.687h-.896z"/>
    </defs>
    <g fill="none" fill-rule="evenodd" transform="translate(-.202 .437)">
        <path fill="#F3FBFF" d="M31.428 144.895c-22.845 53.649 20.64 138.24 115.826 179.722 76.106 33.168 229.156-4.396 258.837-51.874 49.835-79.697-111.958-182.17-193.18-200.286-117.975-26.325-167.325 39.18-181.483 72.438z"/>
        <path fill="#F3FBFF" d="M103.2 245.337c38.861 48.985 116.52 59.08 173.434 22.567C333.55 231.389 422.62 154.385 360.18 85.67 317.852 39.09 147.753-25.63 90.825 10.884 33.896 47.398 64.34 196.39 103.2 245.337z"/>
        <path fill="#94D3FF" d="M315.224 254.266l4.957-.139-7.293 81.743h31.144l18.463-73.638a12.77 12.77 0 0 0-6.24-14.296l-11.641-6.44-48.213-9.201-22.727-7.578-3.21 111.097.499.056h22.436l21.825-81.604z"/>
        <path fill="#F9AE91" d="M336.669 247.277l-33.661-5.817 8.43-23.995 25.633 3.827z"/>
        <path fill="#1F1A3D" d="M320.674 244.684l-2.878-.651-6.981 7.474s-1.567 5.546 5.636 7.065c6.005 1.296 7.863-2.483 7.863-2.483l-3.64-11.405z"/>
        <path fill="#0F9DF4" d="M305.858 233.286l11.786 10.622a.243.243 0 0 1 .055.291l-8.18 16.64a1.068 1.068 0 0 1-1.9-.097l-11.898-25.5a2.44 2.44 0 0 1 .694-2.94l12.403-7.44M336.55 239.193l-15.904 5.38a.25.25 0 0 0-.16.257l1.56 18.47a1.075 1.075 0 0 0 1.81.596l20.363-19.413a2.42 2.42 0 0 0 .423-2.981l-7.69-10.767"/>
        <path fill="#2E2551" d="M320.181 254.127l-4.957.139-21.798 81.604h19.462z"/>
        <path fill="#FFB797" d="M360.77 183.294a5.342 5.342 0 0 1 4.26 6.24l-1.502 7.964a5.342 5.342 0 0 1-10.5-1.98l1.503-7.964a5.342 5.342 0 0 1 6.24-4.26zM301.777 173.944a5.342 5.342 0 0 1 4.26 6.24l-1.502 7.964a5.342 5.342 0 0 1-10.5-1.98l1.503-7.964a5.342 5.342 0 0 1 6.24-4.26z"/>
        <path fill="#FFB797" d="M338.832 141.318c15.395 2.903 25.522 17.737 22.618 33.133l-5.787 30.686c-2.903 15.395-17.737 25.522-33.133 22.618-15.395-2.903-25.522-17.737-22.618-33.133l5.787-30.686c2.903-15.395 17.737-25.522 33.133-22.618z"/>
        <path fill="#2E2551" d="M368.374 157.201s3.016 4.722-5.304 27.04c0 0-1.054-.936-3.71.943-2.391 1.691-3.077 5.796-3.077 5.796s2.385-9.318 1.969-14.733c-.056-.728-.978-2.08-1.255-2.711a6.24 6.24 0 0 1-.049-5.082c1.005-2.343 1.955-5.7.804-8.424l10.622-2.829z"/>
        <path fill="#2E2551" d="M313.45 154.06a6.593 6.593 0 0 1 10.115-4.783c10.753 6.933 34.93 20.363 46.84 10.136 11.6-9.956-1.49-24.904-7.91-22.803-11.093 3.64-22.776-1.283-33.848-3.467-7.328-1.442-19.975-1.15-23.76 9.013-2.773 7.51-4.853 31.754-4.853 31.754s2.46 1.845 2.946 2.725c.645 1.158.992 5.22.992 5.22s2.613-11.931 4.479-14.725a7.35 7.35 0 0 1 2.26-1.9 5.907 5.907 0 0 0 2.842-5.872 22.186 22.186 0 0 1-.104-5.297z"/>
        <path fill="#FFF" d="M317.54 200.243l19.843 4.478s-2.08 8.397-12.785 6.025a9.013 9.013 0 0 1-7.141-9.865l.083-.638z"/>
        <ellipse cx="341.928" cy="183.308" fill="#2E2551" rx="2.593" ry="1.581" transform="rotate(-79.32 341.928 183.308)"/>
        <ellipse cx="320.851" cy="179.056" fill="#2E2551" rx="2.593" ry="1.581" transform="rotate(-82.24 320.85 179.056)"/>
        <path fill="#FFF" d="M332.835 277.243c-.576-3.093-2.4-8.806-6.393-11.37-11.62-7.468-12.57-10.158-12.57-10.158s-2.378 1.907-.603 6.053c0 0-14.795-12.542-17.978-11.17-3.466 1.491 12.376 14.803 12.376 14.803s-6.198 5.616-7.578 13.596c-1.553 8.95 20.44 12.937 20.44 12.937l8.485 5.505 9.561-14.31s-4.922-1.567-5.74-5.886z"/>
        <path fill="#FFB797" d="M332.835 278.81c-.576-3.093-2.4-8.813-6.393-11.378-11.62-7.467-12.57-10.15-12.57-10.15s-2.378 1.9-.603 6.053c0 0-14.795-12.542-17.978-11.177-3.466 1.491 10.664 13.728 10.664 13.728a27.24 27.24 0 0 0-5.866 14.657c-.853 9.013 20.44 11.377 20.44 11.377l8.485 7.072 9.561-14.29s-4.922-1.573-5.74-5.892z"/>
        <path fill="#94D3FF" d="M374.24 299.956c-12.66-1.692-35.81-18.193-35.81-18.193l-12.57 17.284c32.087 28.482 96.371 40.067 83.808 9.27-14.934-36.58-53.385-60.381-53.385-60.381l-7.849 30.277s7.037 1.865 18.92 12.917c5.027 4.666 6.886 8.826 6.886 8.826z"/>
        <path fill="#48B3FF" d="M411.138 313.53c-1.803.632-4.652 19.338-52.45 1.152-30.727-11.69-20.238-32.933-20.238-32.933l-12.59 17.298c30.09 26.735 88.564 38.577 85.278 14.484z" opacity=".4"/>
        <path fill="#48B3FF" d="M374.24 299.956s-5.034-18.248-18.408-27.164l-4.098 17.332 3.259 2.08 2.302-9.193a96.371 96.371 0 0 1 9.297 7.377c6.039 5.671 7.648 9.568 7.648 9.568zM271.42 336.64s12.258-17.486 12.258-56.347c0-26.166-10.13-50.335-10.13-50.335L271.42 336.64z" opacity=".4"/>
        <ellipse cx="220.448" cy="335.738" fill="#2E2551" opacity=".07" rx="201.777" ry="9.18"/>
        <path fill="#2461AB" d="M132.14 336.098l33.556-.332 33.557-.194 67.113-.167 67.12.16 33.557.194 33.556.34-33.556.34-33.557.193-67.12.16-67.113-.16-33.557-.194z"/>
        <path fill="#ACE3FB" d="M302.34 58.063l2.096-7.188 7.188 2.096-2.096 7.188zM354.344 28.622l3.626-4.96 4.959 3.626-3.626 4.96zM269.603 20.213l3.747-12.846 12.846 3.747-3.747 12.846z" opacity=".44"/>
        <path fill="#2461AB" d="M101.966 54.271H261.07c7.245 0 13.118 5.873 13.118 13.118v261.554a6.76 6.76 0 0 1-6.76 6.76H95.609a6.76 6.76 0 0 1-6.76-6.76V67.39c0-7.245 5.873-13.118 13.117-13.118z"/>
        <path fill="#FFF" d="M204.432 78.551h-32.135c-1.27 0-2.302-1.386-2.302-3.05s1.033-3.05 2.302-3.05h32.135c1.269 0 2.295 1.386 2.295 3.05s-1.026 3.05-2.295 3.05z"/>
        <circle cx="159.373" cy="75.501" r="3.064" fill="#FFF"/>
        <path fill="#0089ED" d="M96.177 74.315c0-7.022 5.693-12.715 12.716-12.715h159.421c1.553.001 3.092.288 4.542.846a12.715 12.715 0 0 0-11.87-8.175H101.57c-3.374 0-6.61 1.344-8.994 3.732A12.73 12.73 0 0 0 88.856 67v268.695h7.321V74.316zM259.287 88.792h7.627v246.905h-7.627z"/>
        <path fill="#FFF" d="M103.748 335.738V88.792h155.546V333.04M80.883 151.51c.11 2.565 2.98 4.423 9.255 4.423 2.392 0 4.098-2.663 3.467-4.978-.312-1.144-1.165-2.254-3.058-2.926H84.35s-3.598.388-3.466 3.48zM79.489 162.02c.125 2.558 3.307 4.416 10.261 4.416a4.014 4.014 0 0 0 3.855-4.97c-.347-1.152-1.29-2.254-3.39-2.933H83.35s-4.008.388-3.862 3.487zM80.675 172.524c.097 2.565 4.062 4.416 9.782 4.416 2.184 0 3.737-2.662 3.169-4.97a4.16 4.16 0 0 0-2.774-2.934H83.85s-3.293.396-3.175 3.488zM83.281 183.028c.09 2.565 2.427 4.423 7.53 4.423 1.948 0 3.335-2.662 2.829-4.971a4.014 4.014 0 0 0-2.49-2.933h-5.033a3.3 3.3 0 0 0-2.836 3.48z"/>
        <path fill="#FFB797" d="M80.883 152.854c.11 2.566 2.98 4.424 9.255 4.424 2.392 0 4.098-2.663 3.467-4.971-.312-1.151-1.165-2.254-3.058-2.933H84.35s-3.598.388-3.466 3.48zM79.489 163.372c.125 2.558 3.307 4.416 10.261 4.416a4.014 4.014 0 0 0 3.855-4.97c-.347-1.152-1.29-2.254-3.39-2.933H83.35s-4.008.38-3.862 3.487zM80.675 173.869c.097 2.565 4.062 4.423 9.782 4.423 2.184 0 3.737-2.67 3.169-4.978a4.16 4.16 0 0 0-2.774-2.926H83.85s-3.293.389-3.175 3.48zM83.281 184.373c.09 2.565 2.427 4.423 7.53 4.423 1.948 0 3.335-2.662 2.829-4.971a4.028 4.028 0 0 0-2.49-2.933h-5.033a3.3 3.3 0 0 0-2.836 3.48z"/>
        <path fill="#2461AB" d="M88.51 151.197a5.262 5.262 0 0 0-.313 2.267c.03.376.125.744.277 1.089.16.355.353.694.576 1.012a2.954 2.954 0 0 1-.811-.894 2.697 2.697 0 0 1-.389-1.172 3.182 3.182 0 0 1 .111-1.227c.11-.39.297-.756.548-1.075zM89.036 161.687a5.27 5.27 0 0 0-.319 2.267c.036.376.132.743.284 1.089.157.356.35.695.576 1.012a2.974 2.974 0 0 1-.818-.894 2.69 2.69 0 0 1-.382-1.172 3.182 3.182 0 0 1 .111-1.227c.11-.39.297-.756.548-1.075zM89.036 172.191a5.27 5.27 0 0 0-.291 2.274c.035.376.131.743.284 1.089.155.356.348.696.575 1.012a2.891 2.891 0 0 1-.818-.895 2.662 2.662 0 0 1-.38-1.171 3.148 3.148 0 0 1 .11-1.22c.1-.394.276-.764.52-1.089zM89.036 182.702a5.255 5.255 0 0 0-.319 2.267c.036.373.132.738.284 1.081.156.36.349.701.576 1.02a2.974 2.974 0 0 1-.818-.895 2.718 2.718 0 0 1-.382-1.171 3.182 3.182 0 0 1 .111-1.228c.11-.39.297-.756.548-1.074z"/>
        <path fill="#D3EDFF" d="M249.872 122.799H112.907v53.753h137.097z" opacity=".7"/>
        <path fill="#FFF" d="M107.464 258.142a1.033 1.033 0 0 1 .472 1.386l-15.524 31.068a1.04 1.04 0 0 1-1.386.471 28.62 28.62 0 0 0-24.405 0 1.04 1.04 0 0 1-1.387-.471l-15.468-31.054a1.033 1.033 0 0 1 .472-1.386 65.477 65.477 0 0 1 57.213 0l.013-.014zM38.133 263.806a1.033 1.033 0 0 1 1.386.492l14.747 31.428a1.033 1.033 0 0 1-.478 1.387 28.662 28.662 0 0 0-15.15 19.143 1.026 1.026 0 0 1-1.199.755l-33.972-7.1a1.047 1.047 0 0 1-.798-1.24 65.456 65.456 0 0 1 35.464-44.865zM155.345 308.775a1.033 1.033 0 0 1-.804 1.234l-34.014 6.933a1.033 1.033 0 0 1-1.214-.783 28.717 28.717 0 0 0-15.038-19.233 1.033 1.033 0 0 1-.464-1.387l14.906-31.345a1.04 1.04 0 0 1 1.387-.485 65.456 65.456 0 0 1 35.234 45.066h.007z"/>
        <path fill="#FFF" d="M111.992 256.048a1.2 1.2 0 0 1 .554 1.615L94.57 293.647a1.193 1.193 0 0 1-1.581.547 33.217 33.217 0 0 0-28.288 0 1.193 1.193 0 0 1-1.608-.547l-17.95-35.984a1.2 1.2 0 0 1 .555-1.615 75.85 75.85 0 0 1 66.295 0z"/>
        <path fill="#FFF" d="M137.45 334.726v.922H20.28v-.922c0-32.368 26.238-58.607 58.606-58.607 32.367 0 58.606 26.24 58.606 58.607h-.042z"/>
        <path fill="#65C3FC" d="M5.11 332.597v-1.15a73.755 73.755 0 1 1 147.503 0v1.15h-28.842v-1.15c0-24.82-20.12-44.942-44.94-44.942-24.82 0-44.942 20.121-44.942 44.941v1.151H5.11z"/>
        <path fill="#9AF8B9" d="M107.464 260.811a1.026 1.026 0 0 1 .472 1.387l-15.51 31.053a1.04 1.04 0 0 1-1.386.472 28.683 28.683 0 0 0-24.405 0 1.04 1.04 0 0 1-1.387-.472l-15.482-31.046a1.026 1.026 0 0 1 .472-1.387 65.415 65.415 0 0 1 57.213 0l.013-.007z"/>
        <path fill="#FFF" d="M38.133 263.806a1.033 1.033 0 0 1 1.386.492l14.747 31.428a1.033 1.033 0 0 1-.478 1.387 28.662 28.662 0 0 0-15.15 19.143 1.026 1.026 0 0 1-1.199.755l-33.972-7.1a1.047 1.047 0 0 1-.798-1.24 65.456 65.456 0 0 1 35.464-44.865zM155.345 308.775a1.033 1.033 0 0 1-.804 1.234l-34.014 6.933a1.033 1.033 0 0 1-1.214-.783 28.717 28.717 0 0 0-15.038-19.233 1.033 1.033 0 0 1-.464-1.387l14.906-31.345a1.04 1.04 0 0 1 1.387-.485 65.456 65.456 0 0 1 35.234 45.066h.007z"/>
        <path fill="#2461AB" d="M157.688 334.705a2.212 2.212 0 0 1-2.308 2.08H2.309a2.104 2.104 0 1 1 0-4.209h153.07a2.212 2.212 0 0 1 2.31 2.129z"/>
        <path fill="#F7A231" d="M124.166 133.809h15.939v15.939h-15.939z"/>
        <g fill="#1DACEA" opacity=".3">
            <path d="M156.995 135.681h81.264v4.687h-81.264zM156.995 144.257h58.114v4.687h-58.114z"/>
        </g>
        <path fill="#1DACEA" d="M116.034 173.425V122.8h-3.127v53.753h137.097l-.021-3.127z" opacity=".3"/>
        <path fill="#0089ED" d="M150.297 166.936h-25.52v-9.533h25.52zM190.995 166.936h-34v-9.533h34z"/>
        <use fill="#000" xlink:href="#a"/>
        <use fill="#FFF" xlink:href="#a"/>
        <use fill="#000" xlink:href="#b"/>
        <use fill="#FFF" xlink:href="#b"/>
        <path fill="#D3EDFF" d="M249.872 190.592H112.907v53.753h137.097z" opacity=".7"/>
        <path fill="#65E393" d="M124.166 201.602h15.939v15.939h-15.939z"/>
        <g fill="#1DACEA" opacity=".3">
            <path d="M156.995 203.474h81.264v4.687h-81.264zM156.995 212.05h58.114v4.687h-58.114z"/>
        </g>
        <path fill="#1DACEA" d="M116.034 241.218v-50.626h-3.127v53.753h137.097l-.021-3.127z" opacity=".3"/>
        <path fill="#0089ED" d="M150.297 234.729h-25.52v-9.533h25.52zM197.63 234.729h-40.634v-9.533h40.635z"/>
        <use fill="#000" xlink:href="#c"/>
        <use fill="#FFF" xlink:href="#c"/>
        <use fill="#000" xlink:href="#d"/>
        <use fill="#FFF" xlink:href="#d"/>
        <rect width="81.181" height="68.444" x="163.02" y="266.836" fill="#FFF" rx=".828" transform="rotate(180 203.61 301.058)"/>
        <rect width="81.181" height="35.359" x="163.02" y="299.547" fill="#037F35" rx=".828"/>
        <rect width="81.181" height="35.359" x="163.02" y="296.364" fill="#249F5A" rx=".828"/>
        <rect width="81.181" height="35.359" x="163.02" y="292.544" fill="#037F35" rx=".828"/>
        <rect width="81.181" height="35.359" x="163.02" y="289.362" fill="#249F5A" rx=".828"/>
        <rect width="81.181" height="35.359" x="163.02" y="285.895" fill="#249F5A" rx=".828"/>
        <rect width="81.181" height="35.359" x="163.02" y="282.713" fill="#33BA71" rx=".828"/>
        <rect width="81.181" height="35.359" x="163.02" y="286.075" fill="#037F35" rx=".828"/>
        <rect width="81.181" height="35.359" x="163.02" y="282.893" fill="#249F5A" rx=".828"/>
        <rect width="81.181" height="35.359" x="163.02" y="278.685" fill="#037F35" rx=".828"/>
        <rect width="81.181" height="35.359" x="163.02" y="275.502" fill="#249F5A" rx=".828"/>
        <rect width="81.181" height="35.359" x="163.02" y="271.682" fill="#037F35" rx=".828"/>
        <rect width="81.181" height="35.359" x="163.02" y="268.5" fill="#249F5A" rx=".828"/>
        <path fill="#65E393" d="M229.988 299.581H177.24a4.396 4.396 0 0 0-4.396-4.395v-18.027a4.396 4.396 0 0 0 4.396-4.395h52.748a4.389 4.389 0 0 0 4.388 4.395v18.027a4.389 4.389 0 0 0-4.388 4.395z"/>
        <path fill="#E6E6E6" d="M188.201 266.829h34.368v40.206h-34.368z"/>
        <path fill="#B3B3B3" d="M188.201 303.859h34.368v32.773h-34.368z"/>
        <path fill="#2461AB" fill-rule="nonzero" d="M219.22 335.273H191.26v-63.397h27.961v63.397zm-26.152-1.81h24.336v-59.777h-24.336v59.778z"/>
        <path fill="#2461AB" d="M208.495 282.97a.277.277 0 0 1 .173.29v.742a.208.208 0 0 1-.166.195h-1.789a.444.444 0 0 0 .042.069c.19.274.327.582.402.908 0 .083.048.097.124.097h1.117c.215 0 .29.077.29.291v.652c0 .208-.075.291-.283.291h-1.103c-.07 0-.097 0-.11.09a2.773 2.773 0 0 1-.75 1.47c-.315.305-.69.541-1.102.694a4.257 4.257 0 0 1-1.012.256h-.125l.042.056c.319.367.651.693.97 1.088.32.395.694.77.992 1.165.45.534.894 1.068 1.338 1.608a.257.257 0 0 1-.062.444h-1.387a.478.478 0 0 1-.368-.152 50.04 50.04 0 0 1-.776-.93l-.693-.797c-.389-.443-.77-.887-1.165-1.33-.395-.445-.693-.736-.999-1.096a.319.319 0 0 1-.09-.23v-.866c0-.194.097-.284.292-.284h.77c.451.013.902-.055 1.33-.201a1.65 1.65 0 0 0 .818-.596c.096-.137.167-.29.208-.451h-3.23a.222.222 0 0 1-.18-.208v-.811a.215.215 0 0 1 .207-.201h3.086a.284.284 0 0 0 0-.07 1.331 1.331 0 0 0-.694-.575 2.988 2.988 0 0 0-1.13-.194h-1.137c-.222 0-.312-.104-.298-.34a6.44 6.44 0 0 0 0-.818.291.291 0 0 1 .173-.312l6.275.055z"/>
        <ellipse cx="252.895" cy="339.828" fill="#808184" opacity=".12" rx="12.951" ry="3.557"/>
        <ellipse cx="231.763" cy="339.828" fill="#808184" opacity=".12" rx="12.951" ry="3.557"/>
        <g transform="translate(217.702 330.462)">
            <path fill="#FAA635" d="M21.687 6.663c0 2.177-4.853 3.938-10.816 3.938C4.91 10.6.055 8.84.055 6.663V4.534h21.632v2.129z"/>
            <ellipse cx="10.871" cy="4.125" fill="#FFC600" rx="10.816" ry="3.938"/>
        </g>
        <g transform="translate(217.511 327.246)">
            <path fill="#FAA635" d="M21.684 6.557c0 2.177-4.853 3.938-10.816 3.938-5.963 0-10.816-1.76-10.816-3.938V4.43h21.632v2.128z"/>
            <ellipse cx="10.882" cy="4.02" fill="#FFC600" rx="10.816" ry="3.938"/>
        </g>
        <g transform="translate(217.702 323.529)">
            <path fill="#FAA635" d="M21.687 6.545c0 2.177-4.853 3.938-10.816 3.938C4.91 10.483.055 8.722.055 6.545V4.416h21.632v2.129z"/>
            <ellipse cx="10.871" cy="4.007" fill="#FFC600" rx="10.816" ry="3.938"/>
        </g>
        <g transform="translate(217.511 319.62)">
            <path fill="#FAA635" d="M21.684 6.606c0 2.17-4.853 3.93-10.816 3.93-5.963 0-10.816-1.76-10.816-3.93V4.47h21.632v2.136z"/>
            <ellipse cx="10.882" cy="4.061" fill="#FFC600" rx="10.816" ry="3.938"/>
        </g>
        <g transform="translate(217.702 316.153)">
            <path fill="#FAA635" d="M21.687 6.543c0 2.177-4.853 3.938-10.816 3.938C4.91 10.481.055 8.721.055 6.543V4.415h21.632v2.128z"/>
            <ellipse cx="10.871" cy="4.006" fill="#FFC600" rx="10.816" ry="3.938"/>
        </g>
        <g transform="translate(217.511 312.435)">
            <path fill="#FAA635" d="M21.684 6.531c0 2.177-4.853 3.938-10.816 3.938C4.905 10.47.052 8.71.052 6.531V4.403h21.632V6.53z"/>
            <ellipse cx="10.84" cy="3.994" fill="#FFC600" rx="10.816" ry="3.938"/>
        </g>
        <g transform="translate(217.953 308.276)">
            <path fill="#FAA635" d="M21.831 6.718c0 2.177-4.853 3.938-10.816 3.938C5.053 10.656.2 8.896.2 6.718V4.59h21.632v2.128z"/>
            <ellipse cx="11.015" cy="4.174" fill="#FFC600" rx="10.816" ry="3.938"/>
        </g>
        <path fill="#FFF" d="M233.44 312.006l-3.376-1.949a.34.34 0 0 0-.264.035c-.137.095-.28.18-.43.257-.138.069-.138.131 0 .194l.61.353c.191.107.363.245.507.41.099.109.126.265.07.401l-.056-.034-1.54-.888-.062-.034a.243.243 0 0 0-.208 0l-.43.25c-.062 0-.069.082 0 .117l.077.049 1.594.922h.056a1.553 1.553 0 0 1-.347.076c-.254.024-.51 0-.756-.07a3.321 3.321 0 0 1-.825-.346l-.409-.236a.298.298 0 0 0-.312 0l-.457.264a.139.139 0 0 0-.077.104c0 .215 0 .43-.048.645-.049.215-.056.513-.083.776 0 .153-.035.298-.056.458-.02.16-.055.346-.076.527 0 .062.041.117.11.16l.75.436c.145 0 .27 0 .277-.118.048-.305.097-.61.139-.908.041-.298.055-.444.09-.694.034-.25 0-.43.048-.637h.076c.225.096.457.175.694.235a4 4 0 0 0 .97.118c.406 0 .808-.074 1.186-.222h.111l.291.174.298.173a.284.284 0 0 0 .312 0l.347-.201c.11-.07.11-.118 0-.187l-.59-.34v-.07a.88.88 0 0 0 .271-.408h.055l.826.478.083.042a.236.236 0 0 0 .194 0l.395-.222c.076-.042.097-.09.056-.146" opacity=".37"/>
        <ellipse cx="282.527" cy="343.988" fill="#808184" opacity=".12" rx="11.357" ry="3.12"/>
        <ellipse cx="271.42" cy="337.755" fill="#808184" opacity=".12" rx="11.357" ry="3.12"/>
        <g transform="translate(259.11 328.382)">
            <path fill="#FAA635" d="M23.417 7.127c0 2.35-5.235 4.257-11.696 4.257C5.259 11.384.03 9.478.03 7.127V4.853h23.386v2.274z"/>
            <ellipse cx="11.721" cy="4.382" fill="#FFC600" rx="11.696" ry="4.257"/>
        </g>
        <g transform="translate(259.11 322.835)">
            <path fill="#FAA635" d="M23.417 7.044c0 2.35-5.235 4.257-11.696 4.257C5.259 11.301.03 9.394.03 7.044V4.742h23.386v2.302z"/>
            <ellipse cx="11.721" cy="4.299" fill="#FFC600" rx="11.696" ry="4.257"/>
        </g>
        <circle cx="279.366" cy="336.098" r="9.353" fill="#FAA635"/>
        <circle cx="280.78" cy="336.639" r="9.353" fill="#FFC600"/>
        <path fill="#FFF" d="M283.512 333.235c.106.033.171.14.152.25v.637a.187.187 0 0 1-.145.174h-1.546v.062c.17.237.29.506.353.79 0 .07.049.084.111.084h.964c.187 0 .256.07.256.25v.526c0 .18-.069.25-.25.25h-.963c-.055 0-.083 0-.097.083-.081.48-.306.925-.645 1.276a2.69 2.69 0 0 1-.963.624 3.772 3.772 0 0 1-.874.229h-.104v.048c.277.312.562.624.839.943.277.319.582.693.867 1.012.388.458.77.93 1.157 1.387a.229.229 0 0 1-.062.388h-1.213a.423.423 0 0 1-.32-.138c-.228-.27-.45-.541-.693-.805-.242-.263-.395-.464-.596-.693-.333-.381-.693-.77-1.005-1.151-.312-.381-.583-.638-.874-.957a.284.284 0 0 1-.076-.194v-.749c0-.173.083-.25.257-.25h.693c.393.013.785-.046 1.158-.173.277-.1.519-.281.693-.52.082-.118.143-.249.18-.388h-2.773a.194.194 0 0 1-.16-.187v-.693a.18.18 0 0 1 .18-.174h2.684v-.055a1.144 1.144 0 0 0-.596-.5 2.614 2.614 0 0 0-.978-.166h-.991c-.187 0-.264-.097-.25-.298.013-.23.013-.462 0-.693a.243.243 0 0 1 .139-.229h5.49z" opacity=".37"/>
        <g transform="translate(241.275 330.462)">
            <path fill="#FAA635" d="M21.708 6.663c0 2.177-4.853 3.938-10.816 3.938C4.929 10.6.076 8.84.076 6.663V4.534h21.632v2.129z"/>
            <ellipse cx="10.892" cy="4.125" fill="#FFC600" rx="10.816" ry="3.938"/>
        </g>
        <g transform="translate(240.39 326.553)">
            <path fill="#FAA635" d="M21.795 6.633c0 2.177-4.854 3.938-10.816 3.938-5.963 0-10.816-1.76-10.816-3.938V4.505h21.632v2.128z"/>
            <ellipse cx="10.979" cy="4.096" fill="#FFC600" rx="10.816" ry="3.938"/>
        </g>
        <g transform="translate(241.275 322.142)">
            <path fill="#FAA635" d="M21.708 6.704c0 2.17-4.853 3.932-10.816 3.932C4.929 10.636.076 8.874.076 6.704V4.57h21.632v2.135z"/>
            <ellipse cx="10.892" cy="4.16" fill="#FFC600" rx="10.816" ry="3.938"/>
        </g>
        <g transform="translate(240.39 318.927)">
            <path fill="#FAA635" d="M21.795 6.682c0 2.17-4.854 3.931-10.816 3.931C5.016 10.613.19 8.852.19 6.682V4.547h21.631l-.027 2.135z"/>
            <ellipse cx="10.979" cy="4.137" fill="#FFC600" rx="10.816" ry="3.938"/>
        </g>
        <g transform="translate(241.275 315.46)">
            <path fill="#FAA635" d="M21.708 6.62c0 2.177-4.853 3.938-10.816 3.938C4.929 10.558.076 8.797.076 6.62V4.49h21.632V6.62z"/>
            <ellipse cx="10.892" cy="4.082" fill="#FFC600" rx="10.816" ry="3.938"/>
        </g>
        <g transform="translate(241.084 312.435)">
            <path fill="#FAA635" d="M21.684 6.531c0 2.177-4.853 3.938-10.816 3.938C4.905 10.47.052 8.71.052 6.531V4.403h21.632V6.53z"/>
            <ellipse cx="10.861" cy="3.994" fill="#FFC600" rx="10.816" ry="3.938"/>
        </g>
        <g transform="translate(241.084 308.969)">
            <path fill="#FAA635" d="M21.684 6.642c0 2.17-4.853 3.938-10.816 3.938C4.905 10.58.052 8.812.052 6.642V4.507h21.632v2.135z"/>
            <ellipse cx="10.861" cy="4.098" fill="#FFC600" rx="10.816" ry="3.938"/>
        </g>
        <path fill="#FFF" d="M256.424 310.772l-3.363-1.949a.312.312 0 0 0-.263.042c-.139.083-.277.173-.43.25-.153.076-.146.131 0 .194l.61.353c.193.103.363.245.5.416.101.105.13.26.076.395h-.056l-1.54-.887-.061-.035a.257.257 0 0 0-.215 0l-.43.25c-.056.035-.063.09 0 .125l.07.048 1.587.915.062.035a1.553 1.553 0 0 1-.346.076 2.004 2.004 0 0 1-.763-.069 3.376 3.376 0 0 1-.818-.347l-.41-.235a.284.284 0 0 0-.311 0l-.458.263c-.048 0-.07.056-.07.097 0 .215 0 .437-.048.652-.048.215-.062.513-.09.762-.028.25-.041.312-.055.465-.014.153-.049.354-.077.527 0 .062.035.118.111.166l.75.43c.152 0 .27 0 .27-.118.048-.305.09-.603.138-.908a8.05 8.05 0 0 0 .083-.693l.063-.638h.076c.223.1.455.179.693.236.318.078.644.118.971.117.406.002.808-.074 1.186-.221h.104l.596.34a.27.27 0 0 0 .305 0l.353-.202c.111-.069.104-.118 0-.187-.104-.07-.388-.229-.596-.34v-.069a.922.922 0 0 0 .27-.402v-.035l.056.035.825.471.083.042a.25.25 0 0 0 .187 0l.403-.229c.078-.041.099-.09.062-.145" opacity=".37"/>
        <g transform="translate(241.777 305.754)">
            <path fill="#FAA635" d="M21.635 6.543c0 2.17-4.853 3.931-10.816 3.931-5.962 0-10.815-1.76-10.815-3.93V4.407h21.631v2.135z"/>
            <ellipse cx="10.819" cy="3.999" fill="#FFC600" rx="10.816" ry="3.938"/>
        </g>
        <g transform="translate(242.47 302.287)">
            <path fill="#FAA635" d="M21.746 6.48c0 2.178-4.853 3.939-10.816 3.939C4.968 10.419.115 8.658.115 6.48V4.352h21.631v2.129z"/>
            <ellipse cx="10.93" cy="3.943" fill="#FFC600" rx="10.816" ry="3.938"/>
        </g>
        <g transform="translate(241.084 299.072)">
            <path fill="#FAA635" d="M21.684 6.583c0 2.177-4.853 3.938-10.816 3.938-5.963 0-10.816-1.76-10.816-3.938V4.455h21.632v2.128z"/>
            <ellipse cx="10.861" cy="4.046" fill="#FFC600" rx="10.816" ry="3.938"/>
        </g>
        <g transform="translate(241.084 295.796)">
            <path fill="#FAA635" d="M21.684 6.503c0 2.17-4.853 3.931-10.816 3.931-5.963 0-10.816-1.76-10.816-3.93V4.367h21.632v2.135z"/>
            <ellipse cx="10.861" cy="3.959" fill="#FFC600" rx="10.816" ry="3.938"/>
        </g>
        <path fill="#FFF" d="M256.424 298.694l-3.363-1.955a.34.34 0 0 0-.263.041c-.138.094-.282.18-.43.257-.132.07-.146.125 0 .194l.61.354c.194.098.365.238.5.409a.381.381 0 0 1 .076.402h-.056l-1.54-.895h-.061a.236.236 0 0 0-.215 0c-.146.077-.292.16-.43.25a.07.07 0 0 0 0 .125l.07.041 1.587.922.062.035a2.08 2.08 0 0 1-.346.076c-.257.023-.515 0-.763-.069a3.134 3.134 0 0 1-.818-.354l-.41-.235a.284.284 0 0 0-.311 0l-.458.27c-.048 0-.07.056-.07.09 0 .222 0 .437-.048.659-.048.222-.062.506-.09.763-.028.256-.041.305-.055.457-.014.153-.049.354-.077.527.009.07.054.13.118.16l.749.436c.153 0 .27 0 .27-.118.049-.305.09-.61.14-.915a7.74 7.74 0 0 0 .082-.693c.021-.25.042-.423.056-.63h.076c.226.093.457.172.693.235.318.075.644.113.971.11.406.006.809-.07 1.186-.221h.104l.596.347a.27.27 0 0 0 .305 0l.353-.208c.111-.063.111-.118 0-.18-.11-.063-.388-.23-.596-.34v-.07a.867.867 0 0 0 .278-.409v-.035l.062.035.54.32.278.152.083.041c.06.028.128.028.187 0a4.61 4.61 0 0 0 .403-.229c.076-.034.097-.083.062-.138" opacity=".37"/>
        <ellipse cx="218.437" cy="341.999" fill="#808184" opacity=".12" rx="11.357" ry="3.12"/>
        <circle cx="216.69" cy="334.642" r="9.353" fill="#FAA635"/>
        <circle cx="215.282" cy="334.642" r="9.353" fill="#FFC600"/>
        <path fill="#FFF" d="M218.194 330.593c.101.04.163.142.153.25v.645a.187.187 0 0 1-.146.166h-1.553v.07c.18.242.303.522.36.818 0 .062.05.076.112.076h.97c.188 0 .257.07.257.256v.562c0 .18-.07.257-.257.257h-.943c-.062 0-.083 0-.097.076a2.35 2.35 0 0 1-.651 1.276c-.27.274-.597.487-.957.624a3.827 3.827 0 0 1-.88.228h-.105s0 .042.035.049c.277.319.562.63.839.943.277.312.582.693.867 1.012l1.157 1.387a.222.222 0 0 1-.055.388h-1.193a.437.437 0 0 1-.325-.139c-.23-.27-.451-.54-.694-.804-.242-.263-.395-.464-.596-.693-.333-.389-.693-.777-1.005-1.158l-.867-.957a.257.257 0 0 1-.076-.194v-.749a.222.222 0 0 1 .25-.25h.693c.39.013.78-.046 1.15-.173.277-.103.518-.283.694-.52.08-.118.138-.25.173-.388H212.731a.187.187 0 0 1-.16-.18v-.694a.18.18 0 0 1 .174-.173h2.683a.236.236 0 0 0 0-.055 1.172 1.172 0 0 0-.617-.506 2.773 2.773 0 0 0-.985-.167h-.977c-.194 0-.27-.09-.257-.298.014-.208 0-.471 0-.693a.243.243 0 0 1 .153-.27l5.45-.022z" opacity=".37"/>
        <path fill="#0F9DF4" d="M78.844 271.53c-33.822 0-61.24 27.418-61.24 61.24h16.313v-1.15c0-24.82 20.12-44.941 44.941-44.941 24.82 0 44.941 20.12 44.941 44.94v1.152h16.314a61.24 61.24 0 0 0-61.269-61.241z"/>
        <path fill="#F7A231" d="M107.464 260.811a1.026 1.026 0 0 1 .472 1.387l-15.51 31.053a1.04 1.04 0 0 1-1.386.472 28.683 28.683 0 0 0-24.405 0 1.04 1.04 0 0 1-1.387-.472l-15.482-31.046a1.026 1.026 0 0 1 .472-1.387 65.415 65.415 0 0 1 57.213 0l.013-.007z"/>
        <path fill="#65E393" d="M40.212 265.456a1.047 1.047 0 0 1 1.387.492l14.726 31.436a1.026 1.026 0 0 1-.478 1.386 28.717 28.717 0 0 0-15.142 19.143 1.04 1.04 0 0 1-1.186.762l-33.972-7.113a1.047 1.047 0 0 1-.812-1.206 65.49 65.49 0 0 1 35.477-44.9z"/>
        <path fill="#FF766C" d="M153.223 310.411a1.033 1.033 0 0 1-.81 1.234l-34.015 6.933a1.026 1.026 0 0 1-1.213-.783 28.648 28.648 0 0 0-15.004-19.226 1.033 1.033 0 0 1-.471-1.387l14.913-31.351a1.026 1.026 0 0 1 1.387-.479 65.456 65.456 0 0 1 35.241 45.066l-.028-.007z"/>
        <path fill="#2E2551" d="M89.584 333.062v-.042l-5.193-60.187a5.054 5.054 0 0 0-10.074-.048l-5.678 59.965a10.767 10.767 0 1 0 20.938.312h.007z"/>
        <path fill="#FFF" d="M83.427 333.339a4.812 4.812 0 1 1-6.413-2.281 4.853 4.853 0 0 1 6.413 2.281z"/>
        <path fill="#48B3FF" d="M344.032 335.87h-3.918l6.011-23.199 3.252 1.88z" opacity=".4"/>
        <path fill="#F4A382" d="M327.35 225.077l-8.23-1.546c-13.106-2.517-21.72-15.145-19.28-28.266l1.199-6.358a5.436 5.436 0 0 1-2.038 0 5.36 5.36 0 0 1-4.257-6.24l.956-5.096c-.055.194-.11.395-.152.596l-1.498 7.967a5.36 5.36 0 0 0 4.257 6.24 5.436 5.436 0 0 0 2.039 0l-1.2 6.357c-2.427 13.114 6.184 25.729 19.281 28.246l8.23 1.567c13.114 2.427 25.729-6.184 28.246-19.281l.402-2.156c-3.11 12.432-15.353 20.302-27.955 17.97zM357.995 198.26a5.2 5.2 0 0 1-.936-.27l-.693 3.466c.291.114.593.2.901.256a5.352 5.352 0 0 0 6.24-4.256l.54-2.864a5.36 5.36 0 0 1-6.052 3.668zM337.646 282.748l-10.615 14.622-6.517-5.436s-13.034-1.324-18.449-6.524c-5.415-5.2 1.754-17.5 3.876-19.524 0 0-13.867-12.244-10.664-13.728 0 0 2.774 5.956 15.378 13.784 0 0-12.3 16.584-.693 21.714 0 0 7.828 2.912 11.051 2.191l5.679 4.652 10.954-11.751z"/>
    </g>
</svg>
